<svg xmlns="http://www.w3.org/2000/svg" xmlns:xlink="http://www.w3.org/1999/xlink" contentStyleType="text/css" height="395px" preserveAspectRatio="none" style="width:849px;height:395px;background:#FFFFFF;" version="1.1" viewBox="0 0 849 395" width="849px" zoomAndPan="magnify"><title>Dynamic Component Diagram - User Data Transfer (Numbered)</title><defs/><g><text fill="#000000" font-family="sans-serif" font-size="14" font-weight="bold" lengthAdjust="spacing" textLength="420.0889" x="207.501" y="25.1074">Dynamic Component Diagram - User Data Transfer (Numbered)</text><!--cluster SBA--><g id="cluster_SBA"><rect fill="#FFFFFF" height="239" rx="2.5" ry="2.5" style="stroke:#000000;stroke-width:1.0;" width="180" x="202" y="46.6211"/><text fill="#000000" font-family="sans-serif" font-size="14" font-weight="bold" lengthAdjust="spacing" textLength="111.2002" x="236.3999" y="63.7285">Spring Boot App</text></g><!--entity transferJiraData()\nREST Endpoint--><g id="elem_transferJiraData()\nREST Endpoint"><rect fill="#FFFFFF" height="57.2422" rx="2.5" ry="2.5" style="stroke:#000000;stroke-width:0.5;" width="128.917" x="236.5" y="83.6211"/><text fill="#000000" font-family="sans-serif" font-size="14" lengthAdjust="spacing" textLength="108.917" x="246.5" y="108.7285">transferJiraData()</text><text fill="#000000" font-family="sans-serif" font-size="14" lengthAdjust="spacing" textLength="96.4961" x="246.5" y="127.3496">REST Endpoint</text></g><!--entity UserDataService--><g id="elem_UserDataService"><rect fill="#FFFFFF" height="38.6211" rx="2.5" ry="2.5" style="stroke:#000000;stroke-width:0.5;" width="125.8135" x="218" y="230.6211"/><text fill="#000000" font-family="sans-serif" font-size="14" lengthAdjust="spacing" textLength="105.8135" x="228" y="255.7285">UserDataService</text></g><!--entity Admin--><g id="elem_Admin"><ellipse cx="25.8413" cy="81.1211" fill="#F1F1F1" rx="8" ry="8" style="stroke:#181818;stroke-width:0.5;"/><path d="M25.8413,89.1211 L25.8413,116.1211 M12.8413,97.1211 L38.8413,97.1211 M25.8413,116.1211 L12.8413,131.1211 M25.8413,116.1211 L38.8413,131.1211 " fill="none" style="stroke:#181818;stroke-width:0.5;"/><text fill="#000000" font-family="sans-serif" font-size="14" lengthAdjust="spacing" textLength="39.6826" x="6" y="147.7285">Admin</text></g><!--entity Jira--><g id="elem_Jira"><rect fill="#FFFFFF" height="38.6211" rx="2.5" ry="2.5" style="stroke:#000000;stroke-width:0.5;" width="42.5586" x="259.5" y="350.6211"/><text fill="#000000" font-family="sans-serif" font-size="14" lengthAdjust="spacing" textLength="22.5586" x="269.5" y="375.7285">Jira</text></g><!--entity Keycloak--><g id="elem_Keycloak"><rect fill="#FFFFFF" height="38.6211" rx="2.5" ry="2.5" style="stroke:#000000;stroke-width:0.5;" width="76.8066" x="531.5" y="230.6211"/><text fill="#000000" font-family="sans-serif" font-size="14" lengthAdjust="spacing" textLength="56.8066" x="541.5" y="255.7285">Keycloak</text></g><!--link Admin to transferJiraData()\nREST Endpoint--><g id="link_Admin_transferJiraData()\nREST Endpoint"><path d="M46.22,112.1211 C85.73,112.1211 168.67,112.1211 230.26,112.1211 " fill="none" id="Admin-to-transferJiraData()\nREST Endpoint" style="stroke:#2F4F4F;stroke-width:1.0;"/><polygon fill="#2F4F4F" points="236.26,112.1211,227.26,108.1211,231.26,112.1211,227.26,116.1211,236.26,112.1211" style="stroke:#2F4F4F;stroke-width:1.0;"/><text fill="#000000" font-family="sans-serif" font-size="13" lengthAdjust="spacing" textLength="154.5972" x="64.25" y="105.1494">(1) POST /transferJiraData</text></g><!--link transferJiraData()\nREST Endpoint to UserDataService--><g id="link_transferJiraData()\nREST Endpoint_UserDataService"><path d="M274.08,140.7511 C264.54,152.3911 254.94,166.7011 250,181.6211 C244.36,198.6311 250.3912,212.2702 260.3612,225.5702 " fill="none" id="transferJiraData()\nREST Endpoint-to-UserDataService" style="stroke:#2F4F4F;stroke-width:1.0;"/><polygon fill="#2F4F4F" points="263.96,230.3711,261.7623,220.7706,260.961,226.3704,255.3612,225.569,263.96,230.3711" style="stroke:#2F4F4F;stroke-width:1.0;"/><text fill="#000000" font-family="sans-serif" font-size="13" lengthAdjust="spacing" textLength="111.2363" x="251" y="196.6494">(2) fetchJiraUsers()</text></g><!--link UserDataService to Jira--><g id="link_UserDataService_Jira"><path d="M291.94,269.7611 C298.77,283.6311 305.63,303.0911 302,320.6211 C299.88,330.8611 298.084,336.1956 293.864,344.9556 " fill="none" id="UserDataService-to-Jira" style="stroke:#2F4F4F;stroke-width:1.0;"/><polygon fill="#2F4F4F" points="291.26,350.3611,298.7697,343.9889,293.43,345.8565,291.5624,340.5169,291.26,350.3611" style="stroke:#2F4F4F;stroke-width:1.0;"/><text fill="#000000" font-family="sans-serif" font-size="13" lengthAdjust="spacing" textLength="85.2363" x="304" y="316.6494">(3) GET /users</text></g><!--link Jira to UserDataService--><g id="link_Jira_UserDataService"><path d="M259.48,360.1311 C243.71,352.2611 223.47,339.1611 214,320.6211 C203.79,300.6211 217.536,285.6974 237.816,272.9874 " fill="none" id="Jira-to-UserDataService" style="stroke:#2F4F4F;stroke-width:1.0;"/><polygon fill="#2F4F4F" points="242.9,269.8011,233.1497,271.1912,238.6633,272.4563,237.3981,277.9699,242.9,269.8011" style="stroke:#2F4F4F;stroke-width:1.0;"/><text fill="#000000" font-family="sans-serif" font-size="13" lengthAdjust="spacing" textLength="78.019" x="215" y="316.6494">(4) User Data</text></g><!--link transferJiraData()\nREST Endpoint to Keycloak--><g id="link_transferJiraData()\nREST Endpoint_Keycloak"><path d="M326.74,140.7511 C346.06,160.0111 374.06,184.9711 403,200.6211 C444.03,222.8111 490.4724,234.7254 525.5224,241.6054 " fill="none" id="transferJiraData()\nREST Endpoint-to-Keycloak" style="stroke:#2F4F4F;stroke-width:1.0;"/><polygon fill="#2F4F4F" points="531.41,242.7611,523.349,237.1025,526.5036,241.798,521.8081,244.9527,531.41,242.7611" style="stroke:#2F4F4F;stroke-width:1.0;"/><text fill="#000000" font-family="sans-serif" font-size="13" lengthAdjust="spacing" textLength="122.8335" x="404" y="196.6494">(5) POST /auth/token</text></g><!--link Keycloak to transferJiraData()\nREST Endpoint--><g id="link_Keycloak_transferJiraData()\nREST Endpoint"><path d="M608.62,246.7011 C668.95,241.5111 774.9,225.9411 737,181.6211 C690,126.6611 481.2889,115.6244 371.7289,113.5544 " fill="none" id="Keycloak-to-transferJiraData()\nREST Endpoint" style="stroke:#2F4F4F;stroke-width:1.0;"/><polygon fill="#2F4F4F" points="365.73,113.4411,374.6528,117.6104,370.7291,113.5355,374.804,109.6118,365.73,113.4411" style="stroke:#2F4F4F;stroke-width:1.0;"/><text fill="#000000" font-family="sans-serif" font-size="13" lengthAdjust="spacing" textLength="96.0908" x="745" y="196.6494">(6) Admin Token</text></g><!--link transferJiraData()\nREST Endpoint to Keycloak--><g id="link_transferJiraData()\nREST Endpoint_Keycloak"><path d="M365.71,119.3611 C415.39,127.0111 483.33,144.0011 531,181.6211 C546.94,194.2011 555.3667,209.6382 561.4467,224.8782 " fill="none" id="transferJiraData()\nREST Endpoint-to-Keycloak-1" style="stroke:#2F4F4F;stroke-width:1.0;"/><polygon fill="#2F4F4F" points="563.67,230.4511,564.0503,220.6096,561.8173,225.807,556.6198,223.574,563.67,230.4511" style="stroke:#2F4F4F;stroke-width:1.0;"/><text fill="#000000" font-family="sans-serif" font-size="13" lengthAdjust="spacing" textLength="164.709" x="548" y="196.6494">(7) POST /users (with token)</text></g><!--SRC=[dLBDRjGm4BxFKmmznOTLLIX5ub0fknkj1AXKJH27qiFWp6wi97QmdLQhgk_UJ9QqsmBIYbiyt-_OULFosbZ6gsnHf1UhBndgXaA0K1lRaQSMjMixPzd6F6uRHiywajqql4T9lNTt2zSuZqloTTvGv9MdxHvbCRdCdI_PxyZpXdJzLz8mttZNst97_5wPk1yO-5VFLlCON5H6rvP3m1E0QE9GShcrr1hzR8XBGnjHpl1ROAaP2GjFDgo7KtBHjp_PSwa0ICSXC2rROm6UTiUZlFF6Rd3kNCIqwuwG0kRp5Ey1yJh-TlfaF8bredxOgomlCBDbvuoDDyAIP45pzhT6ymqyl4WGyMWh7_l0Pzxgnb4zWjC10CQIE3i_91y_OdAYyFBhC3n-JGSun64cIQzt4D-t2jSSTILQmKEYu4-Yo8KXYdSALzbGf1SsZDD_kf-gvoSxlEXqJUBmVjgR-bWTHrUpXITyTlZzdQdTVu75QF5VNJvCNSRLCRapiSAnae97]--></g></svg>