<svg xmlns="http://www.w3.org/2000/svg" xmlns:xlink="http://www.w3.org/1999/xlink" contentStyleType="text/css" height="424.2px" preserveAspectRatio="none" style="width:461px;height:424px;background:#FFFFFF;" version="1.1" viewBox="0 0 461 424" width="461.3px" zoomAndPan="magnify"><defs/><g><!--cluster domain--><g id="cluster_domain"><path d="M86.765,322.7096 L122.3105,322.7096 A2.625,2.625 0 0 1 124.0605,324.4596 L128.9605,339.9443 L179.865,339.9443 A1.75,1.75 0 0 1 181.615,341.6943 L181.615,417.5596 A1.75,1.75 0 0 1 179.865,419.3096 L86.765,419.3096 A1.75,1.75 0 0 1 85.015,417.5596 L85.015,324.4596 A1.75,1.75 0 0 1 86.765,322.7096 " fill="none" style="stroke:#000000;stroke-width:1.0499999999999998;"/><line style="stroke:#000000;stroke-width:1.0499999999999998;" x1="85.015" x2="128.9605" y1="339.9443" y2="339.9443"/><text fill="#000000" font-family="sans-serif" font-size="9.8" font-weight="bold" lengthAdjust="spacing" textLength="34.8455" x="87.815" y="334.6848">domain</text></g><!--cluster controller--><g id="cluster_controller"><path d="M19.565,4.2096 L65.4608,4.2096 A2.625,2.625 0 0 1 67.2108,5.9596 L72.1108,21.4443 L247.065,21.4443 A1.75,1.75 0 0 1 248.815,23.1943 L248.815,112.3596 A1.75,1.75 0 0 1 247.065,114.1096 L19.565,114.1096 A1.75,1.75 0 0 1 17.815,112.3596 L17.815,5.9596 A1.75,1.75 0 0 1 19.565,4.2096 " fill="none" style="stroke:#000000;stroke-width:1.0499999999999998;"/><line style="stroke:#000000;stroke-width:1.0499999999999998;" x1="17.815" x2="72.1108" y1="21.4443" y2="21.4443"/><text fill="#000000" font-family="sans-serif" font-size="9.8" font-weight="bold" lengthAdjust="spacing" textLength="45.1958" x="20.615" y="16.1848">controller</text></g><!--cluster service--><g id="cluster_service"><path d="M45.465,130.9096 L79.953,130.9096 A2.625,2.625 0 0 1 81.703,132.6596 L86.603,148.1443 L221.165,148.1443 A1.75,1.75 0 0 1 222.915,149.8943 L222.915,304.1596 A1.75,1.75 0 0 1 221.165,305.9096 L45.465,305.9096 A1.75,1.75 0 0 1 43.715,304.1596 L43.715,132.6596 A1.75,1.75 0 0 1 45.465,130.9096 " fill="none" style="stroke:#000000;stroke-width:1.0499999999999998;"/><line style="stroke:#000000;stroke-width:1.0499999999999998;" x1="43.715" x2="86.603" y1="148.1443" y2="148.1443"/><text fill="#000000" font-family="sans-serif" font-size="9.8" font-weight="bold" lengthAdjust="spacing" textLength="33.788" x="46.515" y="142.8848">service</text></g><!--cluster JsonParser--><g id="cluster_JsonParser"><path d="M241.465,176.4096 L295.553,176.4096 A2.625,2.625 0 0 1 297.303,178.1596 L302.203,193.6443 L454.965,193.6443 A1.75,1.75 0 0 1 456.715,195.3943 L456.715,258.6596 A1.75,1.75 0 0 1 454.965,260.4096 L241.465,260.4096 A1.75,1.75 0 0 1 239.715,258.6596 L239.715,178.1596 A1.75,1.75 0 0 1 241.465,176.4096 " fill="none" style="stroke:#000000;stroke-width:1.0499999999999998;"/><line style="stroke:#000000;stroke-width:1.0499999999999998;" x1="239.715" x2="302.203" y1="193.6443" y2="193.6443"/><text fill="#000000" font-family="sans-serif" font-size="9.8" font-weight="bold" lengthAdjust="spacing" textLength="53.388" x="242.515" y="188.3848">JsonParser</text></g><!--class UserData--><g id="elem_UserData"><rect codeLine="5" fill="#F1F1F1" height="59.6695" id="UserData" rx="1.75" ry="1.75" style="stroke:#181818;stroke-width:0.3499999999999999;" width="73.7604" x="96.565" y="348.6096"/><ellipse cx="111.551" cy="359.8096" fill="#ADD1B2" rx="7.7" ry="7.7" style="stroke:#181818;stroke-width:0.6999999999999998;"/><path d="M113.4869,356.9221 Q113.5963,356.7689 113.7275,356.6924 Q113.8588,356.6158 114.0119,356.6158 Q114.2744,356.6158 114.4385,356.8018 Q114.6025,356.9768 114.6025,357.4033 L114.6025,358.4205 Q114.6025,358.8471 114.4385,359.033 Q114.2744,359.2189 114.0119,359.2189 Q113.7713,359.2189 113.6291,359.0768 Q113.4869,358.9455 113.4104,358.5846 Q113.3775,358.333 113.2463,358.2018 Q113.0166,357.9393 112.59,357.7861 Q112.1635,357.633 111.726,357.633 Q111.19,357.633 110.7416,357.8627 Q110.3041,358.0924 109.9541,358.6174 Q109.615,359.1424 109.615,359.8643 L109.615,360.6299 Q109.615,361.4939 110.2385,362.0736 Q110.8619,362.6424 111.9775,362.6424 Q112.6338,362.6424 113.0932,362.4674 Q113.3666,362.358 113.6619,362.0518 Q113.8479,361.8658 113.9463,361.8111 Q114.0557,361.7564 114.1979,361.7564 Q114.4275,361.7564 114.6025,361.9424 Q114.7885,362.1174 114.7885,362.358 Q114.7885,362.5986 114.5479,362.883 Q114.1979,363.2877 113.64,363.5174 Q112.8854,363.8346 111.9775,363.8346 Q110.9166,363.8346 110.0744,363.3971 Q109.3854,363.0471 108.9041,362.3033 Q108.4229,361.5486 108.4229,360.6518 L108.4229,359.8424 Q108.4229,358.9127 108.8494,358.1143 Q109.2869,357.3049 110.0525,356.8783 Q110.8182,356.4408 111.6822,356.4408 Q112.1963,356.4408 112.6447,356.5611 Q113.1041,356.6705 113.4869,356.9221 Z " fill="#000000"/><text fill="#000000" font-family="sans-serif" font-size="9.8" lengthAdjust="spacing" textLength="41.3916" x="122.3479" y="363.8674">UserData</text><line style="stroke:#181818;stroke-width:0.3499999999999999;" x1="97.265" x2="169.6254" y1="371.0096" y2="371.0096"/><ellipse cx="104.265" cy="381.377" fill="none" rx="2.1" ry="2.1" style="stroke:#038048;stroke-width:0.6999999999999998;"/><text fill="#000000" font-family="sans-serif" font-size="9.8" lengthAdjust="spacing" textLength="55.5604" x="110.565" y="384.3848">name: String</text><ellipse cx="104.265" cy="394.4117" fill="none" rx="2.1" ry="2.1" style="stroke:#038048;stroke-width:0.6999999999999998;"/><text fill="#000000" font-family="sans-serif" font-size="9.8" lengthAdjust="spacing" textLength="54.4646" x="110.565" y="397.4195">email: String</text><line style="stroke:#181818;stroke-width:0.3499999999999999;" x1="97.265" x2="169.6254" y1="402.6791" y2="402.6791"/></g><!--class DataTransferController--><g id="elem_DataTransferController"><rect codeLine="12" fill="#F1F1F1" height="72.7043" id="DataTransferController" rx="1.75" ry="1.75" style="stroke:#181818;stroke-width:0.3499999999999999;" width="208.276" x="29.015" y="30.1096"/><ellipse cx="80.343" cy="41.3096" fill="#ADD1B2" rx="7.7" ry="7.7" style="stroke:#181818;stroke-width:0.6999999999999998;"/><path d="M82.2789,38.4221 Q82.3883,38.2689 82.5195,38.1924 Q82.6508,38.1158 82.8039,38.1158 Q83.0664,38.1158 83.2305,38.3018 Q83.3945,38.4768 83.3945,38.9033 L83.3945,39.9205 Q83.3945,40.3471 83.2305,40.533 Q83.0664,40.7189 82.8039,40.7189 Q82.5633,40.7189 82.4211,40.5768 Q82.2789,40.4455 82.2024,40.0846 Q82.1695,39.833 82.0383,39.7018 Q81.8086,39.4393 81.382,39.2861 Q80.9555,39.133 80.518,39.133 Q79.982,39.133 79.5336,39.3627 Q79.0961,39.5924 78.7461,40.1174 Q78.407,40.6424 78.407,41.3643 L78.407,42.1299 Q78.407,42.9939 79.0305,43.5736 Q79.6539,44.1424 80.7695,44.1424 Q81.4258,44.1424 81.8852,43.9674 Q82.1586,43.858 82.4539,43.5518 Q82.6399,43.3658 82.7383,43.3111 Q82.8477,43.2564 82.9899,43.2564 Q83.2195,43.2564 83.3945,43.4424 Q83.5805,43.6174 83.5805,43.858 Q83.5805,44.0986 83.3399,44.383 Q82.9899,44.7877 82.432,45.0174 Q81.6774,45.3346 80.7695,45.3346 Q79.7086,45.3346 78.8664,44.8971 Q78.1774,44.5471 77.6961,43.8033 Q77.2149,43.0486 77.2149,42.1518 L77.2149,41.3424 Q77.2149,40.4127 77.6414,39.6143 Q78.0789,38.8049 78.8445,38.3783 Q79.6102,37.9408 80.4742,37.9408 Q80.9883,37.9408 81.4367,38.0611 Q81.8961,38.1705 82.2789,38.4221 Z " fill="#000000"/><text fill="#000000" font-family="sans-serif" font-size="9.8" lengthAdjust="spacing" textLength="99.67" x="94.693" y="45.3674">DataTransferController</text><line style="stroke:#181818;stroke-width:0.3499999999999999;" x1="29.715" x2="236.591" y1="52.5096" y2="52.5096"/><rect fill="none" height="4.2" style="stroke:#C82930;stroke-width:0.6999999999999998;" width="4.2" x="34.615" y="60.777"/><text fill="#000000" font-family="sans-serif" font-size="9.8" lengthAdjust="spacing" textLength="190.076" x="43.015" y="65.8848">keycloakUserService: KeycloakUserService</text><rect fill="none" height="4.2" style="stroke:#C82930;stroke-width:0.6999999999999998;" width="4.2" x="34.615" y="73.8117"/><text fill="#000000" font-family="sans-serif" font-size="9.8" lengthAdjust="spacing" textLength="133.4149" x="43.015" y="78.9195">jiraUserParser: JiraUserParser</text><line style="stroke:#181818;stroke-width:0.3499999999999999;" x1="29.715" x2="236.591" y1="84.1791" y2="84.1791"/><ellipse cx="36.715" cy="94.5465" fill="#84BE84" rx="2.1" ry="2.1" style="stroke:#038048;stroke-width:0.6999999999999998;"/><text fill="#000000" font-family="sans-serif" font-size="9.8" lengthAdjust="spacing" textLength="149.7754" x="43.015" y="97.5543">transferJiraData(): List&lt;UserData&gt;</text></g><!--class KeycloakUserService--><g id="elem_KeycloakUserService"><rect codeLine="20" fill="#F1F1F1" height="137.8781" id="KeycloakUserService" rx="1.75" ry="1.75" style="stroke:#181818;stroke-width:0.3499999999999999;" width="156.5341" x="54.915" y="156.8096"/><ellipse cx="83.8653" cy="168.0096" fill="#ADD1B2" rx="7.7" ry="7.7" style="stroke:#181818;stroke-width:0.6999999999999998;"/><path d="M85.8012,165.1221 Q85.9106,164.9689 86.0418,164.8924 Q86.1731,164.8158 86.3262,164.8158 Q86.5887,164.8158 86.7528,165.0018 Q86.9168,165.1768 86.9168,165.6033 L86.9168,166.6205 Q86.9168,167.0471 86.7528,167.233 Q86.5887,167.4189 86.3262,167.4189 Q86.0856,167.4189 85.9434,167.2768 Q85.8012,167.1455 85.7246,166.7846 Q85.6918,166.533 85.5606,166.4018 Q85.3309,166.1393 84.9043,165.9861 Q84.4778,165.833 84.0403,165.833 Q83.5043,165.833 83.0559,166.0627 Q82.6184,166.2924 82.2684,166.8174 Q81.9293,167.3424 81.9293,168.0643 L81.9293,168.8299 Q81.9293,169.6939 82.5528,170.2736 Q83.1762,170.8424 84.2918,170.8424 Q84.9481,170.8424 85.4075,170.6674 Q85.6809,170.558 85.9762,170.2518 Q86.1621,170.0658 86.2606,170.0111 Q86.37,169.9564 86.5121,169.9564 Q86.7418,169.9564 86.9168,170.1424 Q87.1028,170.3174 87.1028,170.558 Q87.1028,170.7986 86.8621,171.083 Q86.5121,171.4877 85.9543,171.7174 Q85.1996,172.0346 84.2918,172.0346 Q83.2309,172.0346 82.3887,171.5971 Q81.6996,171.2471 81.2184,170.5033 Q80.7371,169.7486 80.7371,168.8518 L80.7371,168.0424 Q80.7371,167.1127 81.1637,166.3143 Q81.6012,165.5049 82.3668,165.0783 Q83.1325,164.6408 83.9965,164.6408 Q84.5106,164.6408 84.959,164.7611 Q85.4184,164.8705 85.8012,165.1221 Z " fill="#000000"/><text fill="#000000" font-family="sans-serif" font-size="9.8" lengthAdjust="spacing" textLength="93.1335" x="97.7653" y="172.0674">KeycloakUserService</text><line style="stroke:#181818;stroke-width:0.3499999999999999;" x1="55.615" x2="210.7491" y1="179.2096" y2="179.2096"/><rect fill="none" height="4.2" style="stroke:#C82930;stroke-width:0.6999999999999998;" width="4.2" x="60.515" y="187.477"/><text fill="#000000" font-family="sans-serif" font-size="9.8" lengthAdjust="spacing" textLength="123.6341" x="68.915" y="192.5848">restTemplate: RestTemplate</text><rect fill="none" height="4.2" style="stroke:#C82930;stroke-width:0.6999999999999998;" width="4.2" x="60.515" y="200.5117"/><text fill="#000000" font-family="sans-serif" font-size="9.8" lengthAdjust="spacing" textLength="108.9341" x="68.915" y="205.6195">KEYCLOAK_URL: String</text><rect fill="none" height="4.2" style="stroke:#C82930;stroke-width:0.6999999999999998;" width="4.2" x="60.515" y="213.5465"/><text fill="#000000" font-family="sans-serif" font-size="9.8" lengthAdjust="spacing" textLength="123.6149" x="68.915" y="218.6543">ADMIN_USERNAME: String</text><rect fill="none" height="4.2" style="stroke:#C82930;stroke-width:0.6999999999999998;" width="4.2" x="60.515" y="226.5812"/><text fill="#000000" font-family="sans-serif" font-size="9.8" lengthAdjust="spacing" textLength="125.2467" x="68.915" y="231.6891">ADMIN_PASSWORD: String</text><rect fill="none" height="4.2" style="stroke:#C82930;stroke-width:0.6999999999999998;" width="4.2" x="60.515" y="239.616"/><text fill="#000000" font-family="sans-serif" font-size="9.8" lengthAdjust="spacing" textLength="81.1467" x="68.915" y="244.7238">CLIENT_ID: String</text><rect fill="none" height="4.2" style="stroke:#C82930;stroke-width:0.6999999999999998;" width="4.2" x="60.515" y="252.6508"/><text fill="#000000" font-family="sans-serif" font-size="9.8" lengthAdjust="spacing" textLength="64.8102" x="68.915" y="257.7586">REALM: String</text><line style="stroke:#181818;stroke-width:0.3499999999999999;" x1="55.615" x2="210.7491" y1="263.0182" y2="263.0182"/><ellipse cx="62.615" cy="273.3855" fill="#84BE84" rx="2.1" ry="2.1" style="stroke:#038048;stroke-width:0.6999999999999998;"/><text fill="#000000" font-family="sans-serif" font-size="9.8" lengthAdjust="spacing" textLength="138.3341" x="68.915" y="276.3934">createUser(UserData userData)</text><rect fill="#F24D5C" height="4.2" style="stroke:#C82930;stroke-width:0.6999999999999998;" width="4.2" x="60.515" y="284.3203"/><text fill="#000000" font-family="sans-serif" font-size="9.8" lengthAdjust="spacing" textLength="110.0203" x="68.915" y="289.4281">getAccessToken(): String</text></g><!--class JiraUserParser--><g id="elem_JiraUserParser"><rect codeLine="33" fill="#F1F1F1" height="46.6348" id="JiraUserParser" rx="1.75" ry="1.75" style="stroke:#181818;stroke-width:0.3499999999999999;" width="194.667" x="250.915" y="202.3096"/><ellipse cx="312.6004" cy="213.5096" fill="#ADD1B2" rx="7.7" ry="7.7" style="stroke:#181818;stroke-width:0.6999999999999998;"/><path d="M314.5364,210.6221 Q314.6458,210.4689 314.777,210.3924 Q314.9083,210.3158 315.0614,210.3158 Q315.3239,210.3158 315.4879,210.5018 Q315.652,210.6768 315.652,211.1033 L315.652,212.1205 Q315.652,212.5471 315.4879,212.733 Q315.3239,212.9189 315.0614,212.9189 Q314.8208,212.9189 314.6786,212.7768 Q314.5364,212.6455 314.4598,212.2846 Q314.427,212.033 314.2958,211.9018 Q314.0661,211.6393 313.6395,211.4861 Q313.2129,211.333 312.7754,211.333 Q312.2395,211.333 311.7911,211.5627 Q311.3536,211.7924 311.0036,212.3174 Q310.6645,212.8424 310.6645,213.5643 L310.6645,214.3299 Q310.6645,215.1939 311.2879,215.7736 Q311.9114,216.3424 313.027,216.3424 Q313.6833,216.3424 314.1426,216.1674 Q314.4161,216.058 314.7114,215.7518 Q314.8973,215.5658 314.9958,215.5111 Q315.1051,215.4564 315.2473,215.4564 Q315.477,215.4564 315.652,215.6424 Q315.8379,215.8174 315.8379,216.058 Q315.8379,216.2986 315.5973,216.583 Q315.2473,216.9877 314.6895,217.2174 Q313.9348,217.5346 313.027,217.5346 Q311.9661,217.5346 311.1239,217.0971 Q310.4348,216.7471 309.9536,216.0033 Q309.4723,215.2486 309.4723,214.3518 L309.4723,213.5424 Q309.4723,212.6127 309.8989,211.8143 Q310.3364,211.0049 311.102,210.5783 Q311.8676,210.1408 312.7317,210.1408 Q313.2458,210.1408 313.6942,210.2611 Q314.1536,210.3705 314.5364,210.6221 Z " fill="#000000"/><text fill="#000000" font-family="sans-serif" font-size="9.8" lengthAdjust="spacing" textLength="65.3461" x="326.9504" y="217.5674">JiraUserParser</text><line style="stroke:#181818;stroke-width:0.3499999999999999;" x1="251.615" x2="444.882" y1="224.7096" y2="224.7096"/><line style="stroke:#181818;stroke-width:0.3499999999999999;" x1="251.615" x2="444.882" y1="230.3096" y2="230.3096"/><ellipse cx="258.615" cy="240.677" fill="#84BE84" rx="2.1" ry="2.1" style="stroke:#038048;stroke-width:0.6999999999999998;"/><text fill="#000000" font-family="sans-serif" font-size="9.8" lengthAdjust="spacing" textLength="176.467" x="264.915" y="243.6848">parseUsers(String json): List&lt;UserData&gt;</text></g><!--link DataTransferController to KeycloakUserService--><g id="link_DataTransferController_KeycloakUserService"><path codeLine="39" d="M133.315,103.0286 C133.315,118.9466 133.315,134.0386 133.315,152.5396 " fill="none" id="DataTransferController-to-KeycloakUserService" style="stroke:#181818;stroke-width:0.6999999999999998;"/><polygon fill="#181818" points="133.315,156.7396,136.115,150.4396,133.315,153.2396,130.515,150.4396,133.315,156.7396" style="stroke:#181818;stroke-width:0.6999999999999998;"/></g><!--link DataTransferController to JiraUserParser--><g id="link_DataTransferController_JiraUserParser"><path codeLine="40" d="M190.274,102.9586 C201.236,110.1686 212.534,117.8406 222.915,125.3096 C257.782,150.4046 292.9739,178.8572 317.9569,199.6052 " fill="none" id="DataTransferController-to-JiraUserParser" style="stroke:#181818;stroke-width:0.6999999999999998;"/><polygon fill="#181818" points="321.188,202.2886,318.1303,196.1095,318.4955,200.0525,314.5525,200.4176,321.188,202.2886" style="stroke:#181818;stroke-width:0.6999999999999998;"/></g><!--link DataTransferController to UserData--><g id="link_DataTransferController_UserData"><path codeLine="41" d="M62.076,102.9516 C54.747,109.4126 48.321,116.8396 43.715,125.3096 C4.2,198.0256 6.426,237.6316 43.715,311.5096 C54.782,333.4336 73.2587,347.8186 92.7607,358.8296 " fill="none" id="DataTransferController-to-UserData" style="stroke:#181818;stroke-width:0.6999999999999998;"/><polygon fill="#181818" points="96.418,360.8946,92.3087,355.3589,93.3702,359.1738,89.5554,360.2354,96.418,360.8946" style="stroke:#181818;stroke-width:0.6999999999999998;"/></g><!--link JiraUserParser to UserData--><g id="link_JiraUserParser_UserData"><path codeLine="42" d="M315.812,249.2586 C276.703,276.7756 214.5479,320.5027 173.5699,349.3357 " fill="none" id="JiraUserParser-to-UserData" style="stroke:#181818;stroke-width:0.6999999999999998;"/><polygon fill="#181818" points="170.135,351.7526,176.8986,350.4172,172.9974,349.7385,173.6761,345.8373,170.135,351.7526" style="stroke:#181818;stroke-width:0.6999999999999998;"/></g><!--link KeycloakUserService to UserData--><g id="link_KeycloakUserService_UserData"><path codeLine="43" d="M133.315,294.7586 C133.315,313.6236 133.315,328.8906 133.315,344.2206 " fill="none" id="KeycloakUserService-to-UserData" style="stroke:#181818;stroke-width:0.6999999999999998;"/><polygon fill="#181818" points="133.315,348.4206,136.115,342.1206,133.315,344.9206,130.515,342.1206,133.315,348.4206" style="stroke:#181818;stroke-width:0.6999999999999998;"/></g><!--SRC=[ZLBTQeCm6BttAKAlBCCNa54GzSBwq-8FOrSIiczYrIX9DXXZxpuphJHgNNCHJSv9ldFo7OGGwZ2fS05ezzOskAGxzAsXSP0QSuuo3ip10jy0SZnHt8294i5AMgW8z1VL2-X76-Q_prILj5Imjgw1BIlBgYd3bBy3ioVUJ8THmHUfMrn9dGcmpvBqilpbfdhgKZ8imJDc_MoYex9M_OXHW-H8JVhUH479nVFrQGx_cEI3WgN35PbpUmouIA7fQYnwN_7DIkNvxgiTd2m_p-9WjIs6vOHUb6U96qTMw6vnpbQIl9nYPvrZ1vuRfRbt1uvTAmZNWq4OzBgbMNrArSVuirTlAK1OX03dQLi1bI_-K9oElAL32vUFhRPu7kTExagOwqCbTEdlUg3JsfsO6iPXDOORz5a8DvXNFThCb8AjfKiX_080]--></g></svg>