<svg xmlns="http://www.w3.org/2000/svg" xmlns:xlink="http://www.w3.org/1999/xlink" contentStyleType="text/css" height="1035px" preserveAspectRatio="none" style="width:517px;height:1035px;background:#FFFFFF;" version="1.1" viewBox="0 0 517 1035" width="517px" zoomAndPan="magnify"><defs/><g><line style="stroke:#181818;stroke-width:0.5;stroke-dasharray:5.0,5.0;" x1="22" x2="22" y1="83.6211" y2="951.8965"/><line style="stroke:#181818;stroke-width:0.5;stroke-dasharray:5.0,5.0;" x1="134.8115" x2="134.8115" y1="83.6211" y2="951.8965"/><line style="stroke:#181818;stroke-width:0.5;stroke-dasharray:5.0,5.0;" x1="259.6885" x2="259.6885" y1="83.6211" y2="951.8965"/><line style="stroke:#181818;stroke-width:0.5;stroke-dasharray:5.0,5.0;" x1="345.4951" x2="345.4951" y1="83.6211" y2="951.8965"/><line style="stroke:#181818;stroke-width:0.5;stroke-dasharray:5.0,5.0;" x1="463.7622" x2="463.7622" y1="83.6211" y2="951.8965"/><text fill="#000000" font-family="sans-serif" font-size="14" lengthAdjust="spacing" textLength="29.5586" x="5" y="80.1074">User</text><ellipse cx="22.7793" cy="13.5" fill="#E2E2F0" rx="8" ry="8" style="stroke:#181818;stroke-width:0.5;"/><path d="M22.7793,21.5 L22.7793,48.5 M9.7793,29.5 L35.7793,29.5 M22.7793,48.5 L9.7793,63.5 M22.7793,48.5 L35.7793,63.5 " fill="none" style="stroke:#181818;stroke-width:0.5;"/><text fill="#000000" font-family="sans-serif" font-size="14" lengthAdjust="spacing" textLength="29.5586" x="5" y="966.0039">User</text><ellipse cx="22.7793" cy="978.0176" fill="#E2E2F0" rx="8" ry="8" style="stroke:#181818;stroke-width:0.5;"/><path d="M22.7793,986.0176 L22.7793,1013.0176 M9.7793,994.0176 L35.7793,994.0176 M22.7793,1013.0176 L9.7793,1028.0176 M22.7793,1013.0176 L35.7793,1028.0176 " fill="none" style="stroke:#181818;stroke-width:0.5;"/><rect fill="#E2E2F0" height="32.6211" rx="2.5" ry="2.5" style="stroke:#181818;stroke-width:0.5;" width="67.6826" x="101.8115" y="50"/><text fill="#000000" font-family="sans-serif" font-size="14" lengthAdjust="spacing" textLength="53.6826" x="108.8115" y="72.1074">HaProxy</text><rect fill="#E2E2F0" height="32.6211" rx="2.5" ry="2.5" style="stroke:#181818;stroke-width:0.5;" width="67.6826" x="101.8115" y="950.8965"/><text fill="#000000" font-family="sans-serif" font-size="14" lengthAdjust="spacing" textLength="53.6826" x="108.8115" y="973.0039">HaProxy</text><rect fill="#E2E2F0" height="51.2422" rx="2.5" ry="2.5" style="stroke:#181818;stroke-width:0.5;" width="70.8066" x="224.6885" y="31.3789"/><text fill="#000000" font-family="sans-serif" font-size="14" lengthAdjust="spacing" textLength="56.8066" x="231.6885" y="53.4863">Keycloak</text><text fill="#000000" font-family="sans-serif" font-size="14" lengthAdjust="spacing" textLength="48.2207" x="235.9814" y="72.1074">Primary</text><rect fill="#E2E2F0" height="51.2422" rx="2.5" ry="2.5" style="stroke:#181818;stroke-width:0.5;" width="70.8066" x="224.6885" y="950.8965"/><text fill="#000000" font-family="sans-serif" font-size="14" lengthAdjust="spacing" textLength="56.8066" x="231.6885" y="973.0039">Keycloak</text><text fill="#000000" font-family="sans-serif" font-size="14" lengthAdjust="spacing" textLength="48.2207" x="235.9814" y="991.625">Primary</text><rect fill="#E2E2F0" height="51.2422" rx="2.5" ry="2.5" style="stroke:#181818;stroke-width:0.5;" width="80.9307" x="305.4951" y="31.3789"/><text fill="#000000" font-family="sans-serif" font-size="14" lengthAdjust="spacing" textLength="56.8066" x="317.5571" y="53.4863">Keycloak</text><text fill="#000000" font-family="sans-serif" font-size="14" lengthAdjust="spacing" textLength="66.9307" x="312.4951" y="72.1074">Secondary</text><rect fill="#E2E2F0" height="51.2422" rx="2.5" ry="2.5" style="stroke:#181818;stroke-width:0.5;" width="80.9307" x="305.4951" y="950.8965"/><text fill="#000000" font-family="sans-serif" font-size="14" lengthAdjust="spacing" textLength="56.8066" x="317.5571" y="973.0039">Keycloak</text><text fill="#000000" font-family="sans-serif" font-size="14" lengthAdjust="spacing" textLength="66.9307" x="312.4951" y="991.625">Secondary</text><text fill="#000000" font-family="sans-serif" font-size="14" lengthAdjust="spacing" textLength="76.2617" x="422.7622" y="80.1074">PostgreSQL</text><path d="M445.8931,29 C445.8931,19 463.8931,19 463.8931,19 C463.8931,19 481.8931,19 481.8931,29 L481.8931,55 C481.8931,65 463.8931,65 463.8931,65 C463.8931,65 445.8931,65 445.8931,55 L445.8931,29 " fill="#E2E2F0" style="stroke:#181818;stroke-width:1.5;"/><path d="M445.8931,29 C445.8931,39 463.8931,39 463.8931,39 C463.8931,39 481.8931,39 481.8931,29 " fill="none" style="stroke:#181818;stroke-width:1.5;"/><text fill="#000000" font-family="sans-serif" font-size="14" lengthAdjust="spacing" textLength="76.2617" x="422.7622" y="966.0039">PostgreSQL</text><path d="M445.8931,979.5176 C445.8931,969.5176 463.8931,969.5176 463.8931,969.5176 C463.8931,969.5176 481.8931,969.5176 481.8931,979.5176 L481.8931,1005.5176 C481.8931,1015.5176 463.8931,1015.5176 463.8931,1015.5176 C463.8931,1015.5176 445.8931,1015.5176 445.8931,1005.5176 L445.8931,979.5176 " fill="#E2E2F0" style="stroke:#181818;stroke-width:1.5;"/><path d="M445.8931,979.5176 C445.8931,989.5176 463.8931,989.5176 463.8931,989.5176 C463.8931,989.5176 481.8931,989.5176 481.8931,979.5176 " fill="none" style="stroke:#181818;stroke-width:1.5;"/><rect fill="#EEEEEE" height="3" style="stroke:#EEEEEE;stroke-width:1.0;" width="510.0239" x="0" y="115.2666"/><line style="stroke:#000000;stroke-width:1.0;" x1="0" x2="510.0239" y1="115.2666" y2="115.2666"/><line style="stroke:#000000;stroke-width:1.0;" x1="0" x2="510.0239" y1="118.2666" y2="118.2666"/><rect fill="#EEEEEE" height="25.291" style="stroke:#000000;stroke-width:2.0;" width="127.4072" x="191.3083" y="103.6211"/><text fill="#000000" font-family="sans-serif" font-size="13" font-weight="bold" lengthAdjust="spacing" textLength="109.7954" x="197.3083" y="121.6494">Normal Operation</text><polygon fill="#181818" points="123.6528,158.2031,133.6528,162.2031,123.6528,166.2031,127.6528,162.2031" style="stroke:#181818;stroke-width:1.0;"/><line style="stroke:#181818;stroke-width:1.0;" x1="22.7793" x2="129.6528" y1="162.2031" y2="162.2031"/><text fill="#000000" font-family="sans-serif" font-size="13" lengthAdjust="spacing" textLength="88.8735" x="29.7793" y="156.9404">Access request</text><polygon fill="#181818" points="248.0918,189.4941,258.0918,193.4941,248.0918,197.4941,252.0918,193.4941" style="stroke:#181818;stroke-width:1.0;"/><line style="stroke:#181818;stroke-width:1.0;" x1="135.6528" x2="254.0918" y1="193.4941" y2="193.4941"/><text fill="#000000" font-family="sans-serif" font-size="13" lengthAdjust="spacing" textLength="81.6626" x="142.6528" y="188.2314">Route request</text><polygon fill="#181818" points="451.8931,220.7852,461.8931,224.7852,451.8931,228.7852,455.8931,224.7852" style="stroke:#181818;stroke-width:1.0;"/><line style="stroke:#181818;stroke-width:1.0;" x1="260.0918" x2="457.8931" y1="224.7852" y2="224.7852"/><text fill="#000000" font-family="sans-serif" font-size="13" lengthAdjust="spacing" textLength="93.9326" x="267.0918" y="219.5225">Read/Write data</text><polygon fill="#181818" points="271.0918,252.0762,261.0918,256.0762,271.0918,260.0762,267.0918,256.0762" style="stroke:#181818;stroke-width:1.0;"/><line style="stroke:#181818;stroke-width:1.0;stroke-dasharray:2.0,2.0;" x1="265.0918" x2="462.8931" y1="256.0762" y2="256.0762"/><text fill="#000000" font-family="sans-serif" font-size="13" lengthAdjust="spacing" textLength="84.5508" x="277.0918" y="250.8135">Data response</text><polygon fill="#181818" points="146.6528,283.3672,136.6528,287.3672,146.6528,291.3672,142.6528,287.3672" style="stroke:#181818;stroke-width:1.0;"/><line style="stroke:#181818;stroke-width:1.0;stroke-dasharray:2.0,2.0;" x1="140.6528" x2="259.0918" y1="287.3672" y2="287.3672"/><text fill="#000000" font-family="sans-serif" font-size="13" lengthAdjust="spacing" textLength="100.439" x="152.6528" y="282.1045">Service response</text><polygon fill="#181818" points="33.7793,314.6582,23.7793,318.6582,33.7793,322.6582,29.7793,318.6582" style="stroke:#181818;stroke-width:1.0;"/><line style="stroke:#181818;stroke-width:1.0;stroke-dasharray:2.0,2.0;" x1="27.7793" x2="134.6528" y1="318.6582" y2="318.6582"/><text fill="#000000" font-family="sans-serif" font-size="13" lengthAdjust="spacing" textLength="58.5381" x="39.7793" y="313.3955">Response</text><rect fill="#EEEEEE" height="3" style="stroke:#EEEEEE;stroke-width:1.0;" width="510.0239" x="0" y="348.3037"/><line style="stroke:#000000;stroke-width:1.0;" x1="0" x2="510.0239" y1="348.3037" y2="348.3037"/><line style="stroke:#000000;stroke-width:1.0;" x1="0" x2="510.0239" y1="351.3037" y2="351.3037"/><rect fill="#EEEEEE" height="25.291" style="stroke:#000000;stroke-width:2.0;" width="168.6226" x="170.7007" y="336.6582"/><text fill="#000000" font-family="sans-serif" font-size="13" font-weight="bold" lengthAdjust="spacing" textLength="151.0107" x="176.7007" y="354.6865">Primary Instance Failure</text><path d="M187,376.9492 L187,403.9492 L331,403.9492 L331,386.9492 L321,376.9492 L187,376.9492 " fill="#FEFFDD" style="stroke:#181818;stroke-width:0.5;"/><path d="M321,376.9492 L321,386.9492 L331,386.9492 L321,376.9492 " fill="#FEFFDD" style="stroke:#181818;stroke-width:0.5;"/><text fill="#000000" font-family="sans-serif" font-size="13" lengthAdjust="spacing" textLength="123.5381" x="193" y="395.9775">Primary instance fails</text><polygon fill="#181818" points="248.0918,428.5313,258.0918,432.5313,248.0918,436.5313,252.0918,432.5313" style="stroke:#181818;stroke-width:1.0;"/><line style="stroke:#181818;stroke-width:1.0;" x1="135.6528" x2="254.0918" y1="432.5313" y2="432.5313"/><text fill="#000000" font-family="sans-serif" font-size="13" lengthAdjust="spacing" textLength="75.1499" x="142.6528" y="427.2686">Health check</text><path d="M74,445.5313 L74,472.5313 L196,472.5313 L196,455.5313 L186,445.5313 L74,445.5313 " fill="#FEFFDD" style="stroke:#181818;stroke-width:0.5;"/><path d="M186,445.5313 L186,455.5313 L196,455.5313 L186,445.5313 " fill="#FEFFDD" style="stroke:#181818;stroke-width:0.5;"/><text fill="#000000" font-family="sans-serif" font-size="13" lengthAdjust="spacing" textLength="101.8799" x="80" y="464.5596">Health check fails</text><polygon fill="#181818" points="333.9604,497.1133,343.9604,501.1133,333.9604,505.1133,337.9604,501.1133" style="stroke:#181818;stroke-width:1.0;"/><line style="stroke:#181818;stroke-width:1.0;" x1="135.6528" x2="339.9604" y1="501.1133" y2="501.1133"/><text fill="#000000" font-family="sans-serif" font-size="13" lengthAdjust="spacing" textLength="159.707" x="142.6528" y="495.8506">Route request to secondary</text><polygon fill="#181818" points="451.8931,528.4043,461.8931,532.4043,451.8931,536.4043,455.8931,532.4043" style="stroke:#181818;stroke-width:1.0;"/><line style="stroke:#181818;stroke-width:1.0;" x1="345.9604" x2="457.8931" y1="532.4043" y2="532.4043"/><text fill="#000000" font-family="sans-serif" font-size="13" lengthAdjust="spacing" textLength="93.9326" x="352.9604" y="527.1416">Read/Write data</text><polygon fill="#181818" points="356.9604,559.6953,346.9604,563.6953,356.9604,567.6953,352.9604,563.6953" style="stroke:#181818;stroke-width:1.0;"/><line style="stroke:#181818;stroke-width:1.0;stroke-dasharray:2.0,2.0;" x1="350.9604" x2="462.8931" y1="563.6953" y2="563.6953"/><text fill="#000000" font-family="sans-serif" font-size="13" lengthAdjust="spacing" textLength="84.5508" x="362.9604" y="558.4326">Data response</text><polygon fill="#181818" points="146.6528,590.9863,136.6528,594.9863,146.6528,598.9863,142.6528,594.9863" style="stroke:#181818;stroke-width:1.0;"/><line style="stroke:#181818;stroke-width:1.0;stroke-dasharray:2.0,2.0;" x1="140.6528" x2="344.9604" y1="594.9863" y2="594.9863"/><text fill="#000000" font-family="sans-serif" font-size="13" lengthAdjust="spacing" textLength="100.439" x="152.6528" y="589.7236">Service response</text><polygon fill="#181818" points="33.7793,622.2773,23.7793,626.2773,33.7793,630.2773,29.7793,626.2773" style="stroke:#181818;stroke-width:1.0;"/><line style="stroke:#181818;stroke-width:1.0;stroke-dasharray:2.0,2.0;" x1="27.7793" x2="134.6528" y1="626.2773" y2="626.2773"/><text fill="#000000" font-family="sans-serif" font-size="13" lengthAdjust="spacing" textLength="58.5381" x="39.7793" y="621.0146">Response</text><rect fill="#EEEEEE" height="3" style="stroke:#EEEEEE;stroke-width:1.0;" width="510.0239" x="0" y="655.9229"/><line style="stroke:#000000;stroke-width:1.0;" x1="0" x2="510.0239" y1="655.9229" y2="655.9229"/><line style="stroke:#000000;stroke-width:1.0;" x1="0" x2="510.0239" y1="658.9229" y2="658.9229"/><rect fill="#EEEEEE" height="25.291" style="stroke:#000000;stroke-width:2.0;" width="76.1499" x="216.937" y="644.2773"/><text fill="#000000" font-family="sans-serif" font-size="13" font-weight="bold" lengthAdjust="spacing" textLength="58.5381" x="222.937" y="662.3057">Recovery</text><path d="M174,684.5684 L174,711.5684 L345,711.5684 L345,694.5684 L335,684.5684 L174,684.5684 " fill="#FEFFDD" style="stroke:#181818;stroke-width:0.5;"/><path d="M335,684.5684 L335,694.5684 L345,694.5684 L335,684.5684 " fill="#FEFFDD" style="stroke:#181818;stroke-width:0.5;"/><text fill="#000000" font-family="sans-serif" font-size="13" lengthAdjust="spacing" textLength="150.2681" x="180" y="703.5967">Primary instance recovers</text><polygon fill="#181818" points="248.0918,736.1504,258.0918,740.1504,248.0918,744.1504,252.0918,740.1504" style="stroke:#181818;stroke-width:1.0;"/><line style="stroke:#181818;stroke-width:1.0;" x1="135.6528" x2="254.0918" y1="740.1504" y2="740.1504"/><text fill="#000000" font-family="sans-serif" font-size="13" lengthAdjust="spacing" textLength="75.1499" x="142.6528" y="734.8877">Health check</text><path d="M58,753.1504 L58,780.1504 L212,780.1504 L212,763.1504 L202,753.1504 L58,753.1504 " fill="#FEFFDD" style="stroke:#181818;stroke-width:0.5;"/><path d="M202,753.1504 L202,763.1504 L212,763.1504 L202,753.1504 " fill="#FEFFDD" style="stroke:#181818;stroke-width:0.5;"/><text fill="#000000" font-family="sans-serif" font-size="13" lengthAdjust="spacing" textLength="133.6816" x="64" y="772.1787">Health check succeeds</text><polygon fill="#181818" points="248.0918,804.7324,258.0918,808.7324,248.0918,812.7324,252.0918,808.7324" style="stroke:#181818;stroke-width:1.0;"/><line style="stroke:#181818;stroke-width:1.0;" x1="135.6528" x2="254.0918" y1="808.7324" y2="808.7324"/><text fill="#000000" font-family="sans-serif" font-size="13" lengthAdjust="spacing" textLength="91.7681" x="142.6528" y="803.4697">Resume routing</text><polygon fill="#181818" points="451.8931,836.0234,461.8931,840.0234,451.8931,844.0234,455.8931,840.0234" style="stroke:#181818;stroke-width:1.0;"/><line style="stroke:#181818;stroke-width:1.0;" x1="260.0918" x2="457.8931" y1="840.0234" y2="840.0234"/><text fill="#000000" font-family="sans-serif" font-size="13" lengthAdjust="spacing" textLength="93.9326" x="267.0918" y="834.7607">Read/Write data</text><polygon fill="#181818" points="271.0918,867.3145,261.0918,871.3145,271.0918,875.3145,267.0918,871.3145" style="stroke:#181818;stroke-width:1.0;"/><line style="stroke:#181818;stroke-width:1.0;stroke-dasharray:2.0,2.0;" x1="265.0918" x2="462.8931" y1="871.3145" y2="871.3145"/><text fill="#000000" font-family="sans-serif" font-size="13" lengthAdjust="spacing" textLength="84.5508" x="277.0918" y="866.0518">Data response</text><polygon fill="#181818" points="146.6528,898.6055,136.6528,902.6055,146.6528,906.6055,142.6528,902.6055" style="stroke:#181818;stroke-width:1.0;"/><line style="stroke:#181818;stroke-width:1.0;stroke-dasharray:2.0,2.0;" x1="140.6528" x2="259.0918" y1="902.6055" y2="902.6055"/><text fill="#000000" font-family="sans-serif" font-size="13" lengthAdjust="spacing" textLength="100.439" x="152.6528" y="897.3428">Service response</text><polygon fill="#181818" points="33.7793,929.8965,23.7793,933.8965,33.7793,937.8965,29.7793,933.8965" style="stroke:#181818;stroke-width:1.0;"/><line style="stroke:#181818;stroke-width:1.0;stroke-dasharray:2.0,2.0;" x1="27.7793" x2="134.6528" y1="933.8965" y2="933.8965"/><text fill="#000000" font-family="sans-serif" font-size="13" lengthAdjust="spacing" textLength="58.5381" x="39.7793" y="928.6338">Response</text><!--SRC=[lL51JiCm4Bpx5QlUA-wLWjGgGa5146eXBbmMPscjfdPOEnNzFUisBIa8KVN0qJipdjbPDD4pF0LYrI97QsoBBiAem8hzntO46A2Odc8bRKtZSVNYAhPhv3shh7vZQJBUrKUULZL6VCL0CAfyY0ic_NYtm_APKba6zvxNsC13IupHUWTPfb9465zBc0bCZQ4GWEczen1LCKr0MKrWxhj8ntbPfNa-apbXVVNCLi3ahV8PZ7j9BczHXDQxG3j9RwA9DzRG5vPi14j1qe_zDENjQu1R5o8wqToWRJgcbDjvCVKR2P_S3anxOBu9CmmsA0YRk0Ip9BCQQ5EW8NIgqzysX-WX74fNfVwh1lsZ1dr93NEnbB3RCzRcFVMIpKCdrwTwA9KKtLe-bGwiM_pFtJy1]--></g></svg>