<svg xmlns="http://www.w3.org/2000/svg" xmlns:xlink="http://www.w3.org/1999/xlink" contentStyleType="text/css" height="412px" preserveAspectRatio="none" style="width:257px;height:412px;background:#FFFFFF;" version="1.1" viewBox="0 0 257 412" width="257px" zoomAndPan="magnify"><defs/><g><!--class TestEventListenerProviderFactory--><g id="elem_TestEventListenerProviderFactory"><rect codeLine="3" fill="#F1F1F1" height="159.7266" id="TestEventListenerProviderFactory" rx="2.5" ry="2.5" style="stroke:#181818;stroke-width:0.5;" width="243.6406" x="7" y="7"/><ellipse cx="22" cy="23" fill="#ADD1B2" rx="11" ry="11" style="stroke:#181818;stroke-width:1.0;"/><path d="M24.7656,18.875 Q24.9219,18.6563 25.1094,18.5469 Q25.2969,18.4375 25.5156,18.4375 Q25.8906,18.4375 26.125,18.7031 Q26.3594,18.9531 26.3594,19.5625 L26.3594,21.0156 Q26.3594,21.625 26.125,21.8906 Q25.8906,22.1563 25.5156,22.1563 Q25.1719,22.1563 24.9688,21.9531 Q24.7656,21.7656 24.6563,21.25 Q24.6094,20.8906 24.4219,20.7031 Q24.0938,20.3281 23.4844,20.1094 Q22.875,19.8906 22.25,19.8906 Q21.4844,19.8906 20.8438,20.2188 Q20.2188,20.5469 19.7188,21.2969 Q19.2344,22.0469 19.2344,23.0781 L19.2344,24.1719 Q19.2344,25.4063 20.125,26.2344 Q21.0156,27.0469 22.6094,27.0469 Q23.5469,27.0469 24.2031,26.7969 Q24.5938,26.6406 25.0156,26.2031 Q25.2813,25.9375 25.4219,25.8594 Q25.5781,25.7813 25.7813,25.7813 Q26.1094,25.7813 26.3594,26.0469 Q26.625,26.2969 26.625,26.6406 Q26.625,26.9844 26.2813,27.3906 Q25.7813,27.9688 24.9844,28.2969 Q23.9063,28.75 22.6094,28.75 Q21.0938,28.75 19.8906,28.125 Q18.9063,27.625 18.2188,26.5625 Q17.5313,25.4844 17.5313,24.2031 L17.5313,23.0469 Q17.5313,21.7188 18.1406,20.5781 Q18.7656,19.4219 19.8594,18.8125 Q20.9531,18.1875 22.1875,18.1875 Q22.9219,18.1875 23.5625,18.3594 Q24.2188,18.5156 24.7656,18.875 Z " fill="#000000"/><text fill="#000000" font-family="sans-serif" font-size="14" lengthAdjust="spacing" textLength="211.6406" x="36" y="28.7969">TestEventListenerProviderFactory</text><line style="stroke:#181818;stroke-width:0.5;" x1="8" x2="249.6406" y1="39" y2="39"/><line style="stroke:#181818;stroke-width:0.5;" x1="8" x2="249.6406" y1="47" y2="47"/><text fill="#000000" font-family="sans-serif" font-size="14" lengthAdjust="spacing" textLength="229.1406" x="13" y="66.1074">+TestEventListenerProviderFactory()</text><text fill="#000000" font-family="sans-serif" font-size="14" lengthAdjust="spacing" textLength="103.8789" x="13" y="84.7285">+create(session)</text><text fill="#000000" font-family="sans-serif" font-size="14" lengthAdjust="spacing" textLength="72.7549" x="13" y="103.3496">+init(scope)</text><text fill="#000000" font-family="sans-serif" font-size="14" lengthAdjust="spacing" textLength="104.6514" x="13" y="121.9707">+postInit(factory)</text><text fill="#000000" font-family="sans-serif" font-size="14" lengthAdjust="spacing" textLength="50.1826" x="13" y="140.5918">+close()</text><text fill="#000000" font-family="sans-serif" font-size="14" lengthAdjust="spacing" textLength="92.9893" x="13" y="159.2129">+getId(): String</text></g><!--class TestEventListenerProvider--><g id="elem_TestEventListenerProvider"><rect codeLine="12" fill="#F1F1F1" height="159.7266" id="TestEventListenerProvider" rx="2.5" ry="2.5" style="stroke:#181818;stroke-width:0.5;" width="241.9336" x="8" y="246"/><ellipse cx="43.2359" cy="262" fill="#ADD1B2" rx="11" ry="11" style="stroke:#181818;stroke-width:1.0;"/><path d="M46.0016,257.875 Q46.1578,257.6563 46.3453,257.5469 Q46.5328,257.4375 46.7516,257.4375 Q47.1266,257.4375 47.3609,257.7031 Q47.5953,257.9531 47.5953,258.5625 L47.5953,260.0156 Q47.5953,260.625 47.3609,260.8906 Q47.1266,261.1563 46.7516,261.1563 Q46.4078,261.1563 46.2047,260.9531 Q46.0016,260.7656 45.8922,260.25 Q45.8453,259.8906 45.6578,259.7031 Q45.3297,259.3281 44.7203,259.1094 Q44.1109,258.8906 43.4859,258.8906 Q42.7203,258.8906 42.0797,259.2188 Q41.4547,259.5469 40.9547,260.2969 Q40.4703,261.0469 40.4703,262.0781 L40.4703,263.1719 Q40.4703,264.4063 41.3609,265.2344 Q42.2516,266.0469 43.8453,266.0469 Q44.7828,266.0469 45.4391,265.7969 Q45.8297,265.6406 46.2516,265.2031 Q46.5172,264.9375 46.6578,264.8594 Q46.8141,264.7813 47.0172,264.7813 Q47.3453,264.7813 47.5953,265.0469 Q47.8609,265.2969 47.8609,265.6406 Q47.8609,265.9844 47.5172,266.3906 Q47.0172,266.9688 46.2203,267.2969 Q45.1422,267.75 43.8453,267.75 Q42.3297,267.75 41.1266,267.125 Q40.1422,266.625 39.4547,265.5625 Q38.7672,264.4844 38.7672,263.2031 L38.7672,262.0469 Q38.7672,260.7188 39.3766,259.5781 Q40.0016,258.4219 41.0953,257.8125 Q42.1891,257.1875 43.4234,257.1875 Q44.1578,257.1875 44.7984,257.3594 Q45.4547,257.5156 46.0016,257.875 Z " fill="#000000"/><text fill="#000000" font-family="sans-serif" font-size="14" lengthAdjust="spacing" textLength="164.9648" x="61.7328" y="267.7969">TestEventListenerProvider</text><line style="stroke:#181818;stroke-width:0.5;" x1="9" x2="248.9336" y1="278" y2="278"/><text fill="#000000" font-family="sans-serif" font-size="14" lengthAdjust="spacing" textLength="52.1309" x="14" y="297.1074">-session</text><text fill="#000000" font-family="sans-serif" font-size="14" lengthAdjust="spacing" textLength="43.5791" x="14" y="315.7285">-logger</text><line style="stroke:#181818;stroke-width:0.5;" x1="9" x2="248.9336" y1="323.2422" y2="323.2422"/><text fill="#000000" font-family="sans-serif" font-size="14" lengthAdjust="spacing" textLength="229.9336" x="14" y="342.3496">+TestEventListenerProvider(session)</text><text fill="#000000" font-family="sans-serif" font-size="14" lengthAdjust="spacing" textLength="103.1201" x="14" y="360.9707">+onEvent(event)</text><text fill="#000000" font-family="sans-serif" font-size="14" lengthAdjust="spacing" textLength="158.3682" x="14" y="379.5918">+onEvent(adminEvent, b)</text><text fill="#000000" font-family="sans-serif" font-size="14" lengthAdjust="spacing" textLength="50.1826" x="14" y="398.2129">+close()</text></g><!--link TestEventListenerProviderFactory to TestEventListenerProvider--><g id="link_TestEventListenerProviderFactory_TestEventListenerProvider"><path codeLine="21" d="M129,167.25 C129,192.55 129,214.53 129,239.83 " fill="none" id="TestEventListenerProviderFactory-to-TestEventListenerProvider" style="stroke:#181818;stroke-width:1.0;"/><polygon fill="#181818" points="129,245.83,133,236.83,129,240.83,125,236.83,129,245.83" style="stroke:#181818;stroke-width:1.0;"/><text fill="#000000" font-family="sans-serif" font-size="13" lengthAdjust="spacing" textLength="42.6309" x="130" y="212.0283">creates</text></g><!--SRC=[XP312i8m38RlUueUEtJWUGV1WyB0Wp1VeEjY2SvcD76WuhkxhTjb1zT3QVx-IRw4x-XR4yn3sSOm7qG2La-1mf8lyGrgboJZZxe2ox43BsTa0G_X4gZ36iB9MA7mKfz4zMUpvjDfzDa0Ha0pC2FvIKIFejbI2vFG4ainYBUOFIStn31NSY15hTDSbJsyTybt5NbYpQRcCMZ8EGWhGonuoOyk3SEzq4pzmFZSgch1tIEkxZFBzdyco5LS8Fy0]--></g></svg>