<svg xmlns="http://www.w3.org/2000/svg" xmlns:xlink="http://www.w3.org/1999/xlink" contentStyleType="text/css" height="416.5px" preserveAspectRatio="none" style="width:595px;height:416px;background:#FFFFFF;" version="1.1" viewBox="0 0 595 416" width="595.7px" zoomAndPan="magnify"><defs/><g><rect fill="#FFFFFF" height="264.2445" style="stroke:#181818;stroke-width:0.6999999999999998;" width="7" x="119.9259" y="81.8385"/><rect fill="#FFFFFF" height="21.9037" style="stroke:#181818;stroke-width:0.6999999999999998;" width="7" x="219.234" y="147.5496"/><rect fill="#FFFFFF" height="109.5186" style="stroke:#181818;stroke-width:0.6999999999999998;" width="7" x="315.2738" y="209.7607"/><rect fill="#FFFFFF" height="21.9037" style="stroke:#181818;stroke-width:0.6999999999999998;" width="7" x="395.7953" y="103.7422"/><rect fill="#FFFFFF" height="21.9037" style="stroke:#181818;stroke-width:0.6999999999999998;" width="7" x="547.4998" y="231.6645"/><rect fill="#FFFFFF" height="21.9037" style="stroke:#181818;stroke-width:0.6999999999999998;" width="7" x="547.4998" y="275.4719"/><rect fill="none" height="144.926" style="stroke:#000000;stroke-width:1.0499999999999998;" width="530.3505" x="61.6909" y="179.9533"/><line style="stroke:#181818;stroke-width:0.3499999999999999;stroke-dasharray:5.0,5.0;" x1="17.5" x2="17.5" y1="58.5348" y2="358.683"/><line style="stroke:#181818;stroke-width:0.3499999999999999;stroke-dasharray:5.0,5.0;" x1="123.2909" x2="123.2909" y1="58.5348" y2="358.683"/><line style="stroke:#181818;stroke-width:0.3499999999999999;stroke-dasharray:5.0,5.0;" x1="222.2609" x2="222.2609" y1="58.5348" y2="358.683"/><line style="stroke:#181818;stroke-width:0.3499999999999999;stroke-dasharray:5.0,5.0;" x1="318.407" x2="318.407" y1="58.5348" y2="358.683"/><line style="stroke:#181818;stroke-width:0.3499999999999999;stroke-dasharray:5.0,5.0;" x1="398.9405" x2="398.9405" y1="58.5348" y2="358.683"/><line style="stroke:#181818;stroke-width:0.3499999999999999;stroke-dasharray:5.0,5.0;" x1="550.5582" x2="550.5582" y1="58.5348" y2="358.683"/><text fill="#000000" font-family="sans-serif" font-size="9.8" lengthAdjust="spacing" textLength="25.0551" x="3.5" y="56.0752">Client</text><ellipse cx="18.1275" cy="9.45" fill="#E2E2F0" rx="5.6" ry="5.6" style="stroke:#181818;stroke-width:0.3499999999999999;"/><path d="M18.1275,15.05 L18.1275,33.95 M9.0275,20.65 L27.2275,20.65 M18.1275,33.95 L9.0275,44.45 M18.1275,33.95 L27.2275,44.45 " fill="none" style="stroke:#181818;stroke-width:0.3499999999999999;"/><text fill="#000000" font-family="sans-serif" font-size="9.8" lengthAdjust="spacing" textLength="25.0551" x="3.5" y="368.5582">Client</text><ellipse cx="18.1275" cy="376.9678" fill="#E2E2F0" rx="5.6" ry="5.6" style="stroke:#181818;stroke-width:0.3499999999999999;"/><path d="M18.1275,382.5678 L18.1275,401.4678 M9.0275,388.1678 L27.2275,388.1678 M18.1275,401.4678 L9.0275,411.9678 M18.1275,401.4678 L27.2275,411.9678 " fill="none" style="stroke:#181818;stroke-width:0.3499999999999999;"/><rect fill="#E2E2F0" height="22.8348" rx="1.75" ry="1.75" style="stroke:#181818;stroke-width:0.3499999999999999;" width="109.47" x="68.6909" y="35"/><text fill="#000000" font-family="sans-serif" font-size="9.8" lengthAdjust="spacing" textLength="99.67" x="73.5909" y="50.4752">DataTransferController</text><rect fill="#E2E2F0" height="22.8348" rx="1.75" ry="1.75" style="stroke:#181818;stroke-width:0.3499999999999999;" width="109.47" x="68.6909" y="357.983"/><text fill="#000000" font-family="sans-serif" font-size="9.8" lengthAdjust="spacing" textLength="99.67" x="73.5909" y="373.4582">DataTransferController</text><rect fill="#E2E2F0" height="22.8348" rx="1.75" ry="1.75" style="stroke:#181818;stroke-width:0.3499999999999999;" width="75.1461" x="185.1609" y="35"/><text fill="#000000" font-family="sans-serif" font-size="9.8" lengthAdjust="spacing" textLength="65.3461" x="190.0609" y="50.4752">JiraUserParser</text><rect fill="#E2E2F0" height="22.8348" rx="1.75" ry="1.75" style="stroke:#181818;stroke-width:0.3499999999999999;" width="75.1461" x="185.1609" y="357.983"/><text fill="#000000" font-family="sans-serif" font-size="9.8" lengthAdjust="spacing" textLength="65.3461" x="190.0609" y="373.4582">JiraUserParser</text><rect fill="#E2E2F0" height="22.8348" rx="1.75" ry="1.75" style="stroke:#181818;stroke-width:0.3499999999999999;" width="102.9335" x="267.307" y="35"/><text fill="#000000" font-family="sans-serif" font-size="9.8" lengthAdjust="spacing" textLength="93.1335" x="272.207" y="50.4752">KeycloakUserService</text><rect fill="#E2E2F0" height="22.8348" rx="1.75" ry="1.75" style="stroke:#181818;stroke-width:0.3499999999999999;" width="102.9335" x="267.307" y="357.983"/><text fill="#000000" font-family="sans-serif" font-size="9.8" lengthAdjust="spacing" textLength="93.1335" x="272.207" y="373.4582">KeycloakUserService</text><rect fill="#E2E2F0" height="22.8348" rx="1.75" ry="1.75" style="stroke:#181818;stroke-width:0.3499999999999999;" width="44.1096" x="377.2405" y="35"/><text fill="#000000" font-family="sans-serif" font-size="9.8" lengthAdjust="spacing" textLength="34.3096" x="382.1405" y="50.4752">Jira API</text><rect fill="#E2E2F0" height="22.8348" rx="1.75" ry="1.75" style="stroke:#181818;stroke-width:0.3499999999999999;" width="44.1096" x="377.2405" y="357.983"/><text fill="#000000" font-family="sans-serif" font-size="9.8" lengthAdjust="spacing" textLength="34.3096" x="382.1405" y="373.4582">Jira API</text><rect fill="#E2E2F0" height="22.8348" rx="1.75" ry="1.75" style="stroke:#181818;stroke-width:0.3499999999999999;" width="68.0832" x="516.9582" y="35"/><text fill="#000000" font-family="sans-serif" font-size="9.8" lengthAdjust="spacing" textLength="58.2832" x="521.8582" y="50.4752">Keycloak API</text><rect fill="#E2E2F0" height="22.8348" rx="1.75" ry="1.75" style="stroke:#181818;stroke-width:0.3499999999999999;" width="68.0832" x="516.9582" y="357.983"/><text fill="#000000" font-family="sans-serif" font-size="9.8" lengthAdjust="spacing" textLength="58.2832" x="521.8582" y="373.4582">Keycloak API</text><rect fill="#FFFFFF" height="264.2445" style="stroke:#181818;stroke-width:0.6999999999999998;" width="7" x="119.9259" y="81.8385"/><rect fill="#FFFFFF" height="21.9037" style="stroke:#181818;stroke-width:0.6999999999999998;" width="7" x="219.234" y="147.5496"/><rect fill="#FFFFFF" height="109.5186" style="stroke:#181818;stroke-width:0.6999999999999998;" width="7" x="315.2738" y="209.7607"/><rect fill="#FFFFFF" height="21.9037" style="stroke:#181818;stroke-width:0.6999999999999998;" width="7" x="395.7953" y="103.7422"/><rect fill="#FFFFFF" height="21.9037" style="stroke:#181818;stroke-width:0.6999999999999998;" width="7" x="547.4998" y="231.6645"/><rect fill="#FFFFFF" height="21.9037" style="stroke:#181818;stroke-width:0.6999999999999998;" width="7" x="547.4998" y="275.4719"/><polygon fill="#181818" points="111.5259,79.0385,118.5259,81.8385,111.5259,84.6385,114.3259,81.8385" style="stroke:#181818;stroke-width:0.6999999999999998;"/><line style="stroke:#181818;stroke-width:0.6999999999999998;" x1="18.1275" x2="115.7259" y1="81.8385" y2="81.8385"/><text fill="#000000" font-family="sans-serif" font-size="9.1" lengthAdjust="spacing" textLength="88.4984" x="23.0275" y="78.1546">GET /transferJiraData</text><polygon fill="#181818" points="387.3953,100.9422,394.3953,103.7422,387.3953,106.5422,390.1953,103.7422" style="stroke:#181818;stroke-width:0.6999999999999998;"/><line style="stroke:#181818;stroke-width:0.6999999999999998;" x1="126.9259" x2="391.5953" y1="103.7422" y2="103.7422"/><text fill="#000000" font-family="sans-serif" font-size="9.1" lengthAdjust="spacing" textLength="111.2662" x="131.8259" y="100.0583">GET /rest/api/2/user/search</text><polygon fill="#181818" points="134.6259,122.8459,127.6259,125.6459,134.6259,128.4459,131.8259,125.6459" style="stroke:#181818;stroke-width:0.6999999999999998;"/><line style="stroke:#181818;stroke-width:0.6999999999999998;stroke-dasharray:2.0,2.0;" x1="130.4259" x2="398.5953" y1="125.6459" y2="125.6459"/><text fill="#000000" font-family="sans-serif" font-size="9.1" lengthAdjust="spacing" textLength="107.7248" x="138.8259" y="121.962">JSON response with users</text><polygon fill="#181818" points="210.834,144.7496,217.834,147.5496,210.834,150.3496,213.634,147.5496" style="stroke:#181818;stroke-width:0.6999999999999998;"/><line style="stroke:#181818;stroke-width:0.6999999999999998;" x1="126.9259" x2="215.034" y1="147.5496" y2="147.5496"/><text fill="#000000" font-family="sans-serif" font-size="9.1" lengthAdjust="spacing" textLength="76.8568" x="131.8259" y="143.8657">parseUsers(JSON)</text><polygon fill="#181818" points="134.6259,166.6533,127.6259,169.4533,134.6259,172.2533,131.8259,169.4533" style="stroke:#181818;stroke-width:0.6999999999999998;"/><line style="stroke:#181818;stroke-width:0.6999999999999998;stroke-dasharray:2.0,2.0;" x1="130.4259" x2="222.034" y1="169.4533" y2="169.4533"/><text fill="#000000" font-family="sans-serif" font-size="9.1" lengthAdjust="spacing" textLength="63.2246" x="138.8259" y="165.7694">List&lt;UserData&gt;</text><path d="M61.6909,179.9533 L112.3951,179.9533 L112.3951,186.457 L105.3951,193.457 L61.6909,193.457 L61.6909,179.9533 " fill="#EEEEEE" style="stroke:#000000;stroke-width:1.0499999999999998;"/><rect fill="none" height="144.926" style="stroke:#000000;stroke-width:1.0499999999999998;" width="530.3505" x="61.6909" y="179.9533"/><text fill="#000000" font-family="sans-serif" font-size="9.1" font-weight="bold" lengthAdjust="spacing" textLength="19.2042" x="72.1909" y="190.4731">loop</text><text fill="#000000" font-family="sans-serif" font-size="7.7" font-weight="bold" lengthAdjust="spacing" textLength="53.4864" x="122.8951" y="189.6624">[for each user]</text><polygon fill="#181818" points="306.8738,206.9607,313.8738,209.7607,306.8738,212.5607,309.6738,209.7607" style="stroke:#181818;stroke-width:0.6999999999999998;"/><line style="stroke:#181818;stroke-width:0.6999999999999998;" x1="126.9259" x2="311.0738" y1="209.7607" y2="209.7607"/><text fill="#000000" font-family="sans-serif" font-size="9.1" lengthAdjust="spacing" textLength="87.4897" x="131.8259" y="206.0769">createUser(userData)</text><polygon fill="#181818" points="539.0998,228.8645,546.0998,231.6645,539.0998,234.4645,541.8998,231.6645" style="stroke:#181818;stroke-width:0.6999999999999998;"/><line style="stroke:#181818;stroke-width:0.6999999999999998;" x1="322.2738" x2="543.2998" y1="231.6645" y2="231.6645"/><text fill="#000000" font-family="sans-serif" font-size="9.1" lengthAdjust="spacing" textLength="211.926" x="327.1738" y="227.9806">POST /realms/master/protocol/openid-connect/token</text><polygon fill="#181818" points="329.9738,250.7682,322.9738,253.5682,329.9738,256.3682,327.1738,253.5682" style="stroke:#181818;stroke-width:0.6999999999999998;"/><line style="stroke:#181818;stroke-width:0.6999999999999998;stroke-dasharray:2.0,2.0;" x1="325.7738" x2="550.2998" y1="253.5682" y2="253.5682"/><text fill="#000000" font-family="sans-serif" font-size="9.1" lengthAdjust="spacing" textLength="55.6442" x="334.1738" y="249.8843">access_token</text><polygon fill="#181818" points="539.0998,272.6719,546.0998,275.4719,539.0998,278.2719,541.8998,275.4719" style="stroke:#181818;stroke-width:0.6999999999999998;"/><line style="stroke:#181818;stroke-width:0.6999999999999998;" x1="322.2738" x2="543.2998" y1="275.4719" y2="275.4719"/><text fill="#000000" font-family="sans-serif" font-size="9.1" lengthAdjust="spacing" textLength="139.5704" x="327.1738" y="271.788">POST /admin/realms/[realm]/users</text><polygon fill="#181818" points="329.9738,294.5756,322.9738,297.3756,329.9738,300.1756,327.1738,297.3756" style="stroke:#181818;stroke-width:0.6999999999999998;"/><line style="stroke:#181818;stroke-width:0.6999999999999998;stroke-dasharray:2.0,2.0;" x1="325.7738" x2="550.2998" y1="297.3756" y2="297.3756"/><text fill="#000000" font-family="sans-serif" font-size="9.1" lengthAdjust="spacing" textLength="90.5468" x="334.1738" y="293.6917">user created response</text><polygon fill="#181818" points="134.6259,316.4793,127.6259,319.2793,134.6259,322.0793,131.8259,319.2793" style="stroke:#181818;stroke-width:0.6999999999999998;"/><line style="stroke:#181818;stroke-width:0.6999999999999998;stroke-dasharray:2.0,2.0;" x1="130.4259" x2="318.0738" y1="319.2793" y2="319.2793"/><text fill="#000000" font-family="sans-serif" font-size="9.1" lengthAdjust="spacing" textLength="16.6937" x="138.8259" y="315.5954">void</text><polygon fill="#181818" points="25.8275,343.283,18.8275,346.083,25.8275,348.883,23.0275,346.083" style="stroke:#181818;stroke-width:0.6999999999999998;"/><line style="stroke:#181818;stroke-width:0.6999999999999998;stroke-dasharray:2.0,2.0;" x1="21.6275" x2="122.7259" y1="346.083" y2="346.083"/><text fill="#000000" font-family="sans-serif" font-size="9.1" lengthAdjust="spacing" textLength="63.2246" x="30.0275" y="342.3991">List&lt;UserData&gt;</text><!--SRC=[dLDDImCn4BtdLmmzjOSIyBX8GQg8LMoXzIGYGtPAGxV9agGL_xsPx7O_sYhgNlAnyzwyUJD15Qo3QQ79156Y2rhf4as0mIq6N3aqVarkQarmjYZ83G0zjCS-PAOTldXo2tI-3gss_R17-bI5nIs7BiaTjA8KUxm_9uMRnKCAuSDbiYRaU17FGbI5mNZIqPp1_TqAPAXhOqgkLQ0A-e21kkM9Tiya75l37VaWiTJoIkvZ7T8JEhLfIPBIf7ryadssd3z3X9VMU88F7JR035xar4UV9A-ipA3abRtpGwOQjJbhiwlbBE-Jzk6QSLpjf9kjned2sXBMSHxYhqgKWFZrPHpzpK0vYcXc7Evhsb42DCHDHzDrqweEI-nI1elvCZcAnSxB7VeG_IoT3LRPGjgIZCx7oXf3AiXWjsGkP-6ET_F4SpAXLOnAaVVlBKV7XDxS_48kvZjjZg9Vq_ecgqR-Kns3QrFpPa3-8FEatmUhy-_GWapUdoy6fyVoqw1qNiON]--></g></svg>